<svg xmlns="http://www.w3.org/2000/svg" viewBox="0 0 680 90" role="img" aria-label="FreeDocStore" preserveAspectRatio="xMinYMid meet">
  <title>FreeDocStore</title>
  <!-- Body wordmark (R, C, K, E, T, L, B) inherits the surrounding text
       colour via currentColor, so the logo recolours cleanly across
       dark/light themes without any CSS filter hackery. -->
  <g fill="currentColor">
    <path d="M0,89 L0,44 L0,0 L34.7408981,0 C39.645334,0 44.0388253,0.841002693 47.9215038,2.52303331 C51.8041822,4.20506393 54.9204958,6.46525866 57.270538,9.30368533 C59.6205802,12.142112 61.3984116,15.2958721 62.6040854,18.7650602 C63.8097592,22.2342484 64.4125871,25.8820976 64.4125871,29.7087172 C64.4125871,36.4368397 62.6347557,42.4500089 59.0790397,47.7484054 C55.5233237,53.0468018 48.6617135,56.2759186 41.9589844,58 L71,89 L42.059082,89 L0,89 Z M0,44 L0,89 L42,89 L0,44 Z"/>
    <polygon points="0,62 25,89 0,89"/>
    <path d="M163,44.5614641 C163,38.496977 164.166961,32.7194105 166.500919,27.2285912 C168.834876,21.7377718 171.967246,17.0050843 175.898121,13.0303867 C179.828997,9.05568915 184.527551,5.89032025 189.993925,3.53418508 C195.460299,1.17804991 201.182503,0 207.16071,0 C214.776782,0 221.829731,1.79268465 228.319771,5.37810773 C234.80981,8.96353082 240.081609,13.8089013 244.135324,19.9143646 L226.630731,32.1457182 C224.542453,28.8266409 221.778598,26.1734676 218.339082,24.1861188 C214.899566,22.19877 211.173479,21.2051105 207.16071,21.2051105 C200.773037,21.2051105 195.357928,23.4690151 190.915219,27.9968923 C186.472511,32.5247694 184.25119,38.0462381 184.25119,44.5614641 C184.25119,51.0357138 186.462274,56.5366947 190.88451,61.0645718 C195.306745,65.592449 200.732091,67.8563536 207.16071,67.8563536 C211.214426,67.8563536 214.960985,66.8831819 218.400501,64.9368094 C221.840018,62.9904369 224.624346,60.3577514 226.75357,57.038674 L244.012485,69.1470994 C239.958769,75.2525628 234.707444,80.0876894 228.258351,83.6526243 C221.809258,87.2175593 214.776782,89 207.16071,89 C201.182503,89 195.460299,87.8219501 189.993925,85.4658149 C184.527551,83.1096797 179.828997,79.9443108 175.898121,75.9696133 C171.967246,71.9949157 168.834876,67.2622282 166.500919,61.7714088 C164.166961,56.2805895 163,50.5439986 163,44.5614641 Z M249,89.0877647 L249,0 L270.577587,0 L270.577587,25.4446273 L293.797325,0 L323,0 L281.808026,43.9440711 L323,89.0877647 L293.797325,89.0877647 L270.577587,61.9384105 L270.577587,89.0877647 L249,89.0877647 Z M327,89 L327,0 L384.548641,0 L384.548641,18.859674 L348.509984,18.859674 L348.509984,35.8901488 L380.208908,35.8901488 L380.208908,54.3713678 L348.509984,54.3713678 L348.509984,70.140326 L385.74364,70.140326 L385.74364,89 L327,89 Z M389,18.859674 L389,0 L456.505347,0 L456.505347,18.859674 L433.562354,18.859674 L433.562354,89 L412.006024,89 L412.006024,18.859674 L389,18.859674 Z M461,89 L461,0 L482.80845,0 L482.80845,70.140326 L514.827793,70.140326 L514.827793,89 L461,89 Z"/>
    <path d="M612,89 L612,0 L647.965453,0 C656.110183,0 662.63418,2.186607 667.53764,6.55988661 C672.4411,10.9331662 674.892794,16.7150597 674.892794,23.9057406 C674.892794,25.3354666 674.695412,26.8387589 674.300641,28.4156627 C673.905871,29.9925664 673.28256,31.6640592 672.430687,33.4301914 C671.578815,35.1963235 670.301026,36.8047412 668.597281,38.2554926 C666.893537,39.706244 663.878162,40.7680099 661.551096,41.4408221 C663.878162,41.7772282 667.00781,42.4710555 668.940106,43.5223246 C670.872402,44.5735937 672.472235,45.8140727 673.739655,47.2437987 C675.007075,48.6735247 676.087482,50.2714299 676.980909,52.037562 C677.874336,53.8036942 678.518425,55.5697998 678.913195,57.335932 C679.307965,59.1020641 679.505347,60.8681698 679.505347,62.6343019 C679.505347,66.0404139 678.985921,69.2467367 677.947052,72.2533664 C676.908184,75.2599961 675.297961,78.0458176 673.116337,80.6109142 C670.934713,83.1760109 667.911651,85.2154425 664.047059,86.72927 C660.182468,88.2430976 655.673845,89 650.521057,89 L612,89 Z"/>
  </g>
  <!-- Brand accent: the 'O' in Rocket and the triangular 'A' in Lab.
       Stays mint regardless of theme - the accent is the recognition
       mark. Exposed as an attribute so downstream sites can override. -->
  <g fill="#06f4b1">
    <path d="M69,44 C69,37.935513 70.1669612,32.7194105 72.5009186,27.2285912 C74.834876,21.7377718 77.9672455,17.0050843 81.8981212,13.0303867 C85.8289968,9.05568915 90.5275511,5.89032025 95.993925,3.53418508 C101.460299,1.17804991 107.021793,0 113,0 C121.066484,0 128.658895,1.98731898 135.456034,5.96201657 C142.253173,9.93671416 147.6171,15.3454999 151.547975,22.1885359 C155.478851,29.031572 157.444259,35.927676 157.444259,44 C157.444259,52.0313477 155.478851,60.0094043 151.547975,66.8114641 C147.6171,73.6135239 142.253173,79.0120657 135.456034,83.0072514 C128.658895,87.0024371 121.066484,89 113,89 C107.021793,89 101.460299,87.8219501 95.993925,85.4658149 C90.5275511,83.1096797 85.8289968,79.9443108 81.8981212,75.9696133 C77.9672455,71.9949157 74.834876,67.2622282 72.5009186,61.7714088 C70.1669612,56.2805895 69,49.9825345 69,44 Z"/>
    <polygon points="520,89 563.5,0 607,89"/>
  </g>
</svg>
